<?xml version="1.0" standalone="no"?><!DOCTYPE svg PUBLIC "-//W3C//DTD SVG 1.1//EN" "http://www.w3.org/Graphics/SVG/1.1/DTD/svg11.dtd"><svg t="1561362532519" class="icon" viewBox="0 0 1024 1024" version="1.1" xmlns="http://www.w3.org/2000/svg" p-id="1885" xmlns:xlink="http://www.w3.org/1999/xlink" width="200" height="200"><defs><style type="text/css"></style></defs><path d="M512 294.500112c-170.361564 0-308.344134 177.226369-321.95933 217.499888 13.500782 40.27352 151.483352 217.499888 321.95933 217.499888 170.361564 0 308.344134-177.226369 321.95933-217.499888-13.615196-40.27352-151.597765-217.499888-321.95933-217.499888z m0 366.008491c-81.119106 0-147.250056-66.588603-147.250056-148.508603 0-81.92 66.016536-148.508603 147.250056-148.508603 81.119106 0 147.250056 66.588603 147.250056 148.508603 0 81.92-66.13095 148.508603-147.250056 148.508603z m0-242.442011c-51.02838 0-92.560447 42.104134-92.560447 93.933408s41.532067 93.933408 92.560447 93.933408c51.02838 0 92.560447-42.104134 92.560447-93.933408s-41.532067-93.933408-92.560447-93.933408z m0-418.066592C229.284469 0 0 229.284469 0 512S229.284469 1024 512 1024 1024 794.715531 1024 512 794.715531 0 512 0z m376.877765 515.890056c-4.919777 46.223017-168.416536 268.299441-376.877765 268.299441S139.927598 562.113073 135.122235 515.890056c-0.114413-0.68648 0-1.372961 0-2.059441-0.114413-0.68648 0-1.258547 0-1.945028V510.283799c0-0.68648-0.114413-1.372961 0-2.173855 4.919777-46.223017 168.416536-268.299441 376.877765-268.299441s372.072402 222.076425 376.877765 268.299441c0.114413 0.68648 0 1.372961 0 2.059441 0.114413 0.68648 0 1.258547 0 1.945028v1.601788c0 0.68648 0.114413 1.487374 0 2.173855z" fill="#1A70CC" p-id="1886"></path></svg>